
      <svg data-logo="logo" xmlns="http://www.w3.org/2000/svg" viewBox="0 0 154 43">
        <g id="logogram" transform="translate(0, 1.5) rotate(0) "><path d="M24 0H16V12.0632C15.9663 14.2434 14.1885 16 12.0005 16H0V24H8.68629C10.808 24 12.8429 23.1571 14.3431 21.6569L21.6569 14.3431C23.1571 12.8429 24 10.808 24 8.68629V0Z" fill="url(#paint0_linear_7697_8782)"/><path d="M16 40H24V27.9368C24.0337 25.7566 25.8115 24 27.9995 24H40V16H31.3137C29.192 16 27.1571 16.8429 25.6569 18.3431L18.3431 25.6569C16.8429 27.1571 16 29.192 16 31.3137V40Z" fill="url(#paint1_linear_7697_8782)"/></g>
        <g id="logotype" transform="translate(46, 1)"><path fill="#3754FA" d="M27.77 21.85L27.77 31.52Q26.06 32.97 23.96 33.75Q21.86 34.53 19.59 34.53L19.59 34.53Q17.84 34.53 16.23 34.08Q14.61 33.62 13.21 32.80Q11.81 31.97 10.65 30.81Q9.49 29.66 8.67 28.25Q7.85 26.84 7.39 25.22Q6.94 23.59 6.94 21.85L6.94 21.85Q6.94 20.11 7.39 18.50Q7.85 16.89 8.67 15.48Q9.49 14.07 10.65 12.92Q11.81 11.77 13.21 10.95Q14.61 10.13 16.23 9.67Q17.84 9.22 19.59 9.22L19.59 9.22Q21.86 9.22 23.96 10.00Q26.06 10.77 27.77 12.23L27.77 12.23L25.21 16.50Q24.10 15.37 22.65 14.73Q21.19 14.09 19.59 14.09L19.59 14.09Q17.98 14.09 16.57 14.71Q15.16 15.32 14.10 16.37Q13.04 17.42 12.43 18.83Q11.81 20.24 11.81 21.85L11.81 21.85Q11.81 23.47 12.43 24.89Q13.04 26.31 14.10 27.37Q15.16 28.43 16.57 29.04Q17.98 29.66 19.59 29.66L19.59 29.66Q20.51 29.66 21.38 29.44Q22.25 29.21 23.04 28.82L23.04 28.82L23.04 21.85L27.77 21.85ZM47.08 18.98L38.33 29.52Q38.61 29.61 38.88 29.63Q39.15 29.66 39.43 29.66L39.43 29.66Q40.11 29.66 40.74 29.47Q41.38 29.28 41.93 28.93Q42.49 28.58 42.92 28.08Q43.36 27.57 43.63 26.96L43.63 26.96L47.05 30.39Q46.40 31.32 45.55 32.05Q44.71 32.79 43.73 33.30Q42.74 33.81 41.66 34.08Q40.57 34.34 39.43 34.34L39.43 34.34Q37.50 34.34 35.80 33.62Q34.10 32.91 32.82 31.62Q31.55 30.34 30.81 28.57Q30.08 26.81 30.08 24.69L30.08 24.69Q30.08 22.52 30.81 20.72Q31.55 18.93 32.82 17.66Q34.10 16.40 35.80 15.70Q37.50 15.00 39.43 15.00L39.43 15.00Q40.57 15.00 41.67 15.27Q42.76 15.54 43.74 16.06Q44.73 16.57 45.58 17.31Q46.43 18.06 47.08 18.98L47.08 18.98ZM35.29 27.11L40.73 19.90Q40.40 19.78 40.09 19.75Q39.77 19.71 39.43 19.71L39.43 19.71Q38.47 19.71 37.62 20.06Q36.78 20.41 36.16 21.06Q35.53 21.71 35.17 22.63Q34.81 23.54 34.81 24.69L34.81 24.69Q34.81 24.94 34.84 25.27Q34.86 25.59 34.92 25.93Q34.98 26.26 35.07 26.57Q35.16 26.87 35.29 27.11L35.29 27.11ZM54.09 23.54L54.09 34L49.43 34L49.43 15.70L50.55 15.70L52.09 17.47Q53.22 16.45 54.65 15.89Q56.07 15.34 57.63 15.34L57.63 15.34Q59.30 15.34 60.79 15.98Q62.28 16.62 63.39 17.74Q64.50 18.86 65.14 20.35Q65.78 21.85 65.78 23.54L65.78 23.54L65.78 34L61.11 34L61.11 23.54Q61.11 22.82 60.84 22.18Q60.57 21.54 60.09 21.06Q59.61 20.58 58.98 20.31Q58.35 20.04 57.63 20.04L57.63 20.04Q56.89 20.04 56.24 20.31Q55.59 20.58 55.12 21.06Q54.64 21.54 54.36 22.18Q54.09 22.82 54.09 23.54L54.09 23.54ZM74.60 10.72L74.60 10.72Q74.60 11.37 74.35 11.94Q74.10 12.50 73.68 12.92Q73.25 13.34 72.68 13.59Q72.10 13.83 71.45 13.83L71.45 13.83Q70.80 13.83 70.23 13.59Q69.66 13.34 69.24 12.92Q68.82 12.50 68.57 11.94Q68.33 11.37 68.33 10.72L68.33 10.72Q68.33 10.09 68.57 9.52Q68.82 8.95 69.24 8.53Q69.66 8.11 70.23 7.86Q70.80 7.61 71.45 7.61L71.45 7.61Q72.10 7.61 72.68 7.86Q73.25 8.11 73.68 8.53Q74.10 8.95 74.35 9.52Q74.60 10.09 74.60 10.72ZM73.80 15.70L73.80 34L69.10 34L69.10 15.70L73.80 15.70ZM83.28 20.35L83.28 34L78.61 34L78.61 20.35L76.34 20.35L76.34 15.70L78.61 15.70L78.61 14.83Q78.61 13.13 79.26 11.65Q79.90 10.16 81.02 9.06Q82.14 7.96 83.62 7.31Q85.11 6.67 86.80 6.67L86.80 6.67L90.30 6.67L90.30 11.32L86.80 11.32Q86.05 11.32 85.41 11.59Q84.77 11.85 84.30 12.32Q83.83 12.79 83.55 13.43Q83.28 14.07 83.28 14.83L83.28 14.83L83.28 15.70L89.01 15.70L89.01 20.35L83.28 20.35ZM97.88 41.01L95.48 40.97L95.48 36.27L98.08 36.31Q98.76 36.31 99.40 36.08Q100.03 35.86 100.57 35.47Q101.10 35.08 101.52 34.54Q101.93 34 102.18 33.37L102.18 33.37Q101.41 33.69 100.62 34.02Q99.82 34.34 99.02 34.34L99.02 34.34Q97.33 34.34 95.84 33.74Q94.35 33.15 93.24 32.04Q92.12 30.94 91.47 29.36Q90.83 27.78 90.83 25.81L90.83 25.81L90.83 15.70L95.48 15.70L95.48 25.81Q95.48 26.79 95.76 27.51Q96.05 28.24 96.52 28.73Q97.00 29.21 97.64 29.45Q98.29 29.69 99.02 29.69L99.02 29.69Q99.74 29.69 100.38 29.36Q101.02 29.03 101.50 28.48Q101.98 27.93 102.25 27.24Q102.52 26.55 102.52 25.81L102.52 25.81L102.52 15.70L107.22 15.70L107.22 31.69Q107.21 33.62 106.47 35.32Q105.74 37.01 104.46 38.27Q103.19 39.54 101.50 40.27Q99.81 41.01 97.88 41.01L97.88 41.01Z"/></g>
        <defs xmlns="http://www.w3.org/2000/svg">
<linearGradient id="paint0_linear_7697_8782" x1="20" y1="-0.997096" x2="20" y2="33.7931" gradientUnits="userSpaceOnUse">
<stop stop-color="#75D8FC"/>
<stop offset="1" stop-color="#3754FA"/>
</linearGradient>
<linearGradient id="paint1_linear_7697_8782" x1="20" y1="-0.997096" x2="20" y2="33.7931" gradientUnits="userSpaceOnUse">
<stop stop-color="#75D8FC"/>
<stop offset="1" stop-color="#3754FA"/>
</linearGradient>
</defs>
      </svg>
    